<?xml version="1.0" encoding="utf-8"?>
<svg version="1.1" id="Layer_1" xmlns="http://www.w3.org/2000/svg" xmlns:xlink="http://www.w3.org/1999/xlink" x="0px" y="0px"
	 viewBox="0 0 595.28 841.89" style="enable-background:new 0 0 595.28 841.89;" xml:space="preserve">
<style type="text/css">
	.st0{fill:#E1D4C1;}
	.st1{font-family:'ArialMT';}
	.st2{font-size:3px;}
	.st3{letter-spacing:0.6;}
	.st4{stroke:url(#SVGID_1_);stroke-width:0.75;stroke-linecap:round;stroke-miterlimit:10;}
	.st5{stroke:url(#SVGID_2_);stroke-width:0.75;stroke-linecap:round;stroke-miterlimit:10;}
	.st6{stroke:url(#SVGID_3_);stroke-width:0.75;stroke-linecap:round;stroke-miterlimit:10;}
	.st7{fill:url(#SVGID_4_);}
	.st8{stroke:url(#SVGID_5_);stroke-width:0.5;stroke-linecap:round;stroke-miterlimit:10;}
	.st9{stroke:url(#SVGID_6_);stroke-width:0.5;stroke-linecap:round;stroke-linejoin:round;stroke-miterlimit:10;}
	.st10{fill:url(#SVGID_7_);}
	.st11{fill:url(#SVGID_8_);}
	.st12{fill:url(#SVGID_9_);}
	.st13{fill:url(#SVGID_10_);}
	.st14{fill:url(#SVGID_11_);}
	.st15{fill:url(#SVGID_12_);}
	.st16{fill:url(#SVGID_13_);}
	.st17{fill:none;stroke:#D0B4A1;stroke-width:0.25;stroke-miterlimit:10;}
</style>
<g>
	<text transform="matrix(1.6656 0 0 1.05 299.0964 539.5938)" class="st0 st1 st2 st3">DECOR</text>
</g>
<radialGradient id="SVGID_1_" cx="310.4038" cy="535.7408" r="29.2881" gradientUnits="userSpaceOnUse">
	<stop  offset="0" style="stop-color:#E2B4AD"/>
	<stop  offset="0.3745" style="stop-color:#BE9086"/>
	<stop  offset="0.9837" style="stop-color:#865A4B"/>
</radialGradient>
<line class="st4" x1="269.36" y1="535.74" x2="351.45" y2="535.74"/>
<radialGradient id="SVGID_2_" cx="282.3613" cy="538.1345" r="9.4616" gradientUnits="userSpaceOnUse">
	<stop  offset="0" style="stop-color:#E2B4AD"/>
	<stop  offset="0.3745" style="stop-color:#BE9086"/>
	<stop  offset="0.9837" style="stop-color:#865A4B"/>
</radialGradient>
<line class="st5" x1="269.36" y1="538.13" x2="295.36" y2="538.13"/>
<radialGradient id="SVGID_3_" cx="339.0425" cy="538.1345" r="9.1755" gradientUnits="userSpaceOnUse">
	<stop  offset="0" style="stop-color:#E2B4AD"/>
	<stop  offset="0.3745" style="stop-color:#BE9086"/>
	<stop  offset="0.9837" style="stop-color:#865A4B"/>
</radialGradient>
<line class="st6" x1="326.45" y1="538.13" x2="351.64" y2="538.13"/>
<radialGradient id="SVGID_4_" cx="310.3721" cy="520.9847" r="6.2923" gradientUnits="userSpaceOnUse">
	<stop  offset="0" style="stop-color:#EBBDB6"/>
	<stop  offset="0.1715" style="stop-color:#E0B2AB"/>
	<stop  offset="0.4764" style="stop-color:#C4968C"/>
	<stop  offset="0.8765" style="stop-color:#96695C"/>
	<stop  offset="1" style="stop-color:#865A4B"/>
</radialGradient>
<path class="st7" d="M301.79,523.29c0.18-0.29,3.15-4.72,8.65-4.67c5.43,0.05,8.31,4.43,8.51,4.74"/>
<radialGradient id="SVGID_5_" cx="310.4038" cy="524.1707" r="6.4142" gradientUnits="userSpaceOnUse">
	<stop  offset="0" style="stop-color:#E5B7B0"/>
	<stop  offset="0.3919" style="stop-color:#BE9186"/>
	<stop  offset="0.9837" style="stop-color:#865A4B"/>
</radialGradient>
<line class="st8" x1="301.59" y1="524.13" x2="319.22" y2="524.21"/>
<radialGradient id="SVGID_6_" cx="310.4038" cy="525.2524" r="6.6316" gradientUnits="userSpaceOnUse">
	<stop  offset="0" style="stop-color:#E2B4AD"/>
	<stop  offset="0.3745" style="stop-color:#BE9086"/>
	<stop  offset="0.9837" style="stop-color:#865A4B"/>
</radialGradient>
<line class="st9" x1="301.28" y1="525.22" x2="319.53" y2="525.28"/>
<rect x="337.46" y="513.86" width="0.1" height="0.81"/>
<g>
	<g>
		
			<radialGradient id="SVGID_7_" cx="315.5977" cy="537.7047" r="33.5473" gradientTransform="matrix(1 0 0 0.9515 9.592951e-05 26.8495)" gradientUnits="userSpaceOnUse">
			<stop  offset="0" style="stop-color:#D0B4A1"/>
			<stop  offset="0.4882" style="stop-color:#C4C3BC"/>
			<stop  offset="1" style="stop-color:#C7B5A0"/>
		</radialGradient>
		<path class="st10" d="M279.26,527.15c-1,0.09-1.09,0.15-1.09,1.11v4.58c0,0.96,0.11,0.99,1.09,1.1v0.32h-3.21v-0.32
			c1-0.11,1.09-0.14,1.09-1.1v-2.28h-4.1v2.28c0,0.95,0.1,0.98,1.08,1.1v0.32h-3.2v-0.32c0.97-0.1,1.08-0.14,1.08-1.1v-4.58
			c0-0.96-0.11-1.02-1.08-1.11v-0.32h3.2v0.32c-0.96,0.08-1.08,0.16-1.08,1.11v1.81h4.1v-1.81c0-0.95-0.13-1.03-1.09-1.11v-0.32
			h3.21V527.15z"/>
		
			<radialGradient id="SVGID_8_" cx="315.5977" cy="537.7047" r="33.5473" gradientTransform="matrix(1 0 0 0.9515 9.592951e-05 26.8495)" gradientUnits="userSpaceOnUse">
			<stop  offset="0" style="stop-color:#D0B4A1"/>
			<stop  offset="0.4882" style="stop-color:#C4C3BC"/>
			<stop  offset="1" style="stop-color:#C7B5A0"/>
		</radialGradient>
		<path class="st11" d="M288.39,526.67c2.05,0,3.89,1.5,3.89,3.77c0,2.45-1.75,3.98-3.96,3.98c-2.3,0-3.98-1.67-3.98-3.81
			C284.34,528.56,285.86,526.67,288.39,526.67z M288.15,527.09c-1.34,0-2.57,1.07-2.57,3.21c0,2.12,1.22,3.69,2.93,3.69
			c1.45,0,2.54-1.03,2.54-3.23C291.05,528.36,289.72,527.09,288.15,527.09z"/>
		
			<radialGradient id="SVGID_9_" cx="315.5977" cy="537.7047" r="33.5473" gradientTransform="matrix(1 0 0 0.9515 9.592951e-05 26.8495)" gradientUnits="userSpaceOnUse">
			<stop  offset="0" style="stop-color:#D0B4A1"/>
			<stop  offset="0.4882" style="stop-color:#C4C3BC"/>
			<stop  offset="1" style="stop-color:#C7B5A0"/>
		</radialGradient>
		<path class="st12" d="M304.49,534.34c-0.16,0-0.29-0.01-0.44-0.02c-0.88-0.06-1.34-0.27-1.87-0.98c-0.44-0.58-0.88-1.3-1.26-1.88
			c-0.24-0.37-0.4-0.43-1.01-0.43h-0.42v1.79c0,0.97,0.13,1.03,1.09,1.12v0.32h-3.2v-0.32c1-0.1,1.08-0.15,1.08-1.12v-4.55
			c0-0.97-0.13-1-1.08-1.11v-0.32h3.06c0.88,0,1.46,0.1,1.92,0.39c0.49,0.3,0.82,0.81,0.82,1.51c0,0.98-0.66,1.6-1.55,1.96
			c0.22,0.35,0.73,1.12,1.09,1.63c0.44,0.6,0.67,0.89,0.95,1.18c0.32,0.33,0.6,0.46,0.88,0.52L304.49,534.34z M300.07,530.63
			c0.62,0,1.02-0.09,1.32-0.33c0.47-0.33,0.66-0.79,0.66-1.4c0-1.22-0.85-1.67-1.78-1.67c-0.35,0-0.55,0.05-0.64,0.11
			c-0.11,0.08-0.14,0.19-0.14,0.49v2.8H300.07z"/>
		
			<radialGradient id="SVGID_10_" cx="315.5977" cy="537.7047" r="33.5473" gradientTransform="matrix(1 0 0 0.9515 9.592951e-05 26.8495)" gradientUnits="userSpaceOnUse">
			<stop  offset="0" style="stop-color:#D0B4A1"/>
			<stop  offset="0.4882" style="stop-color:#C4C3BC"/>
			<stop  offset="1" style="stop-color:#C7B5A0"/>
		</radialGradient>
		<path class="st13" d="M308.73,534.25v-0.32c0.98-0.1,1.08-0.15,1.08-1.12v-4.53c0-0.98-0.1-1.03-1.08-1.13v-0.32h3.21v0.32
			c-1,0.1-1.09,0.15-1.09,1.13v4.53c0,0.98,0.1,1.02,1.09,1.12v0.32H308.73z"/>
		
			<radialGradient id="SVGID_11_" cx="315.5977" cy="537.7047" r="33.5473" gradientTransform="matrix(1 0 0 0.9515 9.592951e-05 26.8495)" gradientUnits="userSpaceOnUse">
			<stop  offset="0" style="stop-color:#D0B4A1"/>
			<stop  offset="0.4882" style="stop-color:#C4C3BC"/>
			<stop  offset="1" style="stop-color:#C7B5A0"/>
		</radialGradient>
		<path class="st14" d="M323.62,532.29c-0.08,0.39-0.37,1.46-0.49,1.95h-6.24l-0.11-0.18c1.67-2.19,3.33-4.46,5.03-6.78h-2.36
			c-1.07,0-1.25,0.07-1.5,0.42c-0.12,0.15-0.3,0.53-0.46,0.96l-0.36-0.01c0.06-0.59,0.2-1.59,0.23-2.09h0.31
			c0.13,0.27,0.28,0.26,0.64,0.26h4.85l0.1,0.18c-1.67,2.23-3.29,4.44-4.94,6.75c0.37,0.02,1.15,0.04,1.97,0.04
			c1.57,0,1.93-0.06,2.27-0.41c0.25-0.24,0.52-0.68,0.73-1.16L323.62,532.29z"/>
		
			<radialGradient id="SVGID_12_" cx="315.5977" cy="537.7047" r="33.5473" gradientTransform="matrix(1 0 0 0.9515 9.592951e-05 26.8495)" gradientUnits="userSpaceOnUse">
			<stop  offset="0" style="stop-color:#D0B4A1"/>
			<stop  offset="0.4882" style="stop-color:#C4C3BC"/>
			<stop  offset="1" style="stop-color:#C7B5A0"/>
		</radialGradient>
		<path class="st15" d="M332.44,526.67c2.05,0,3.89,1.5,3.89,3.77c0,2.45-1.75,3.98-3.96,3.98c-2.3,0-3.98-1.67-3.98-3.81
			C328.39,528.56,329.91,526.67,332.44,526.67z M332.2,527.09c-1.34,0-2.57,1.07-2.57,3.21c0,2.12,1.22,3.69,2.93,3.69
			c1.45,0,2.54-1.03,2.54-3.23C335.1,528.36,333.77,527.09,332.2,527.09z"/>
		
			<radialGradient id="SVGID_13_" cx="315.5977" cy="537.7047" r="33.5473" gradientTransform="matrix(1 0 0 0.9515 9.592951e-05 26.8495)" gradientUnits="userSpaceOnUse">
			<stop  offset="0" style="stop-color:#D0B4A1"/>
			<stop  offset="0.4882" style="stop-color:#C4C3BC"/>
			<stop  offset="1" style="stop-color:#C7B5A0"/>
		</radialGradient>
		<path class="st16" d="M349.72,527.15c-0.77,0.08-1.02,0.19-1.06,0.72c-0.01,0.37-0.04,0.84-0.04,1.91v4.58h-0.46l-5.13-5.97v2.85
			c0,1.03,0.04,1.54,0.06,1.87c0.02,0.58,0.32,0.75,1.19,0.82v0.32h-2.92v-0.32c0.74-0.06,1.03-0.23,1.08-0.79
			c0.04-0.37,0.06-0.88,0.06-1.92v-2.91c0-0.32-0.02-0.5-0.24-0.75c-0.23-0.29-0.48-0.35-1.07-0.41v-0.32h1.8l5.09,5.74v-2.8
			c0-1.06-0.02-1.55-0.06-1.9c-0.04-0.51-0.31-0.67-1.27-0.73v-0.32h2.96V527.15z"/>
	</g>
	<g>
		<g>
			<path d="M279.26,527.15c-1,0.09-1.09,0.15-1.09,1.11v4.58c0,0.96,0.11,0.99,1.09,1.1v0.32h-3.21v-0.32c1-0.11,1.09-0.14,1.09-1.1
				v-2.28h-4.1v2.28c0,0.95,0.1,0.98,1.08,1.1v0.32h-3.2v-0.32c0.97-0.1,1.08-0.14,1.08-1.1v-4.58c0-0.96-0.11-1.02-1.08-1.11v-0.32
				h3.2v0.32c-0.96,0.08-1.08,0.16-1.08,1.11v1.81h4.1v-1.81c0-0.95-0.13-1.03-1.09-1.11v-0.32h3.21V527.15z"/>
			<path d="M288.39,526.67c2.05,0,3.89,1.5,3.89,3.77c0,2.45-1.75,3.98-3.96,3.98c-2.3,0-3.98-1.67-3.98-3.81
				C284.34,528.56,285.86,526.67,288.39,526.67z M288.15,527.09c-1.34,0-2.57,1.07-2.57,3.21c0,2.12,1.22,3.69,2.93,3.69
				c1.45,0,2.54-1.03,2.54-3.23C291.05,528.36,289.72,527.09,288.15,527.09z"/>
			<path d="M304.49,534.34c-0.16,0-0.29-0.01-0.44-0.02c-0.88-0.06-1.34-0.27-1.87-0.98c-0.44-0.58-0.88-1.3-1.26-1.88
				c-0.24-0.37-0.4-0.43-1.01-0.43h-0.42v1.79c0,0.97,0.13,1.03,1.09,1.12v0.32h-3.2v-0.32c1-0.1,1.08-0.15,1.08-1.12v-4.55
				c0-0.97-0.13-1-1.08-1.11v-0.32h3.06c0.88,0,1.46,0.1,1.92,0.39c0.49,0.3,0.82,0.81,0.82,1.51c0,0.98-0.66,1.6-1.55,1.96
				c0.22,0.35,0.73,1.12,1.09,1.63c0.44,0.6,0.67,0.89,0.95,1.18c0.32,0.33,0.6,0.46,0.88,0.52L304.49,534.34z M300.07,530.63
				c0.62,0,1.02-0.09,1.32-0.33c0.47-0.33,0.66-0.79,0.66-1.4c0-1.22-0.85-1.67-1.78-1.67c-0.35,0-0.55,0.05-0.64,0.11
				c-0.11,0.08-0.14,0.19-0.14,0.49v2.8H300.07z"/>
			<path d="M308.73,534.25v-0.32c0.98-0.1,1.08-0.15,1.08-1.12v-4.53c0-0.98-0.1-1.03-1.08-1.13v-0.32h3.21v0.32
				c-1,0.1-1.09,0.15-1.09,1.13v4.53c0,0.98,0.1,1.02,1.09,1.12v0.32H308.73z"/>
			<path d="M323.62,532.29c-0.08,0.39-0.37,1.46-0.49,1.95h-6.24l-0.11-0.18c1.67-2.19,3.33-4.46,5.03-6.78h-2.36
				c-1.07,0-1.25,0.07-1.5,0.42c-0.12,0.15-0.3,0.53-0.46,0.96l-0.36-0.01c0.06-0.59,0.2-1.59,0.23-2.09h0.31
				c0.13,0.27,0.28,0.26,0.64,0.26h4.85l0.1,0.18c-1.67,2.23-3.29,4.44-4.94,6.75c0.37,0.02,1.15,0.04,1.97,0.04
				c1.57,0,1.93-0.06,2.27-0.41c0.25-0.24,0.52-0.68,0.73-1.16L323.62,532.29z"/>
			<path d="M332.44,526.67c2.05,0,3.89,1.5,3.89,3.77c0,2.45-1.75,3.98-3.96,3.98c-2.3,0-3.98-1.67-3.98-3.81
				C328.39,528.56,329.91,526.67,332.44,526.67z M332.2,527.09c-1.34,0-2.57,1.07-2.57,3.21c0,2.12,1.22,3.69,2.93,3.69
				c1.45,0,2.54-1.03,2.54-3.23C335.1,528.36,333.77,527.09,332.2,527.09z"/>
			<path d="M349.72,527.15c-0.77,0.08-1.02,0.19-1.06,0.72c-0.01,0.37-0.04,0.84-0.04,1.91v4.58h-0.46l-5.13-5.97v2.85
				c0,1.03,0.04,1.54,0.06,1.87c0.02,0.58,0.32,0.75,1.19,0.82v0.32h-2.92v-0.32c0.74-0.06,1.03-0.23,1.08-0.79
				c0.04-0.37,0.06-0.88,0.06-1.92v-2.91c0-0.32-0.02-0.5-0.24-0.75c-0.23-0.29-0.48-0.35-1.07-0.41v-0.32h1.8l5.09,5.74v-2.8
				c0-1.06-0.02-1.55-0.06-1.9c-0.04-0.51-0.31-0.67-1.27-0.73v-0.32h2.96V527.15z"/>
		</g>
	</g>
	<g>
		<g>
			<path class="st17" d="M279.26,527.15c-1,0.09-1.09,0.15-1.09,1.11v4.58c0,0.96,0.11,0.99,1.09,1.1v0.32h-3.21v-0.32
				c1-0.11,1.09-0.14,1.09-1.1v-2.28h-4.1v2.28c0,0.95,0.1,0.98,1.08,1.1v0.32h-3.2v-0.32c0.97-0.1,1.08-0.14,1.08-1.1v-4.58
				c0-0.96-0.11-1.02-1.08-1.11v-0.32h3.2v0.32c-0.96,0.08-1.08,0.16-1.08,1.11v1.81h4.1v-1.81c0-0.95-0.13-1.03-1.09-1.11v-0.32
				h3.21V527.15z"/>
			<path class="st17" d="M288.39,526.67c2.05,0,3.89,1.5,3.89,3.77c0,2.45-1.75,3.98-3.96,3.98c-2.3,0-3.98-1.67-3.98-3.81
				C284.34,528.56,285.86,526.67,288.39,526.67z M288.15,527.09c-1.34,0-2.57,1.07-2.57,3.21c0,2.12,1.22,3.69,2.93,3.69
				c1.45,0,2.54-1.03,2.54-3.23C291.05,528.36,289.72,527.09,288.15,527.09z"/>
			<path class="st17" d="M304.49,534.34c-0.16,0-0.29-0.01-0.44-0.02c-0.88-0.06-1.34-0.27-1.87-0.98c-0.44-0.58-0.88-1.3-1.26-1.88
				c-0.24-0.37-0.4-0.43-1.01-0.43h-0.42v1.79c0,0.97,0.13,1.03,1.09,1.12v0.32h-3.2v-0.32c1-0.1,1.08-0.15,1.08-1.12v-4.55
				c0-0.97-0.13-1-1.08-1.11v-0.32h3.06c0.88,0,1.46,0.1,1.92,0.39c0.49,0.3,0.82,0.81,0.82,1.51c0,0.98-0.66,1.6-1.55,1.96
				c0.22,0.35,0.73,1.12,1.09,1.63c0.44,0.6,0.67,0.89,0.95,1.18c0.32,0.33,0.6,0.46,0.88,0.52L304.49,534.34z M300.07,530.63
				c0.62,0,1.02-0.09,1.32-0.33c0.47-0.33,0.66-0.79,0.66-1.4c0-1.22-0.85-1.67-1.78-1.67c-0.35,0-0.55,0.05-0.64,0.11
				c-0.11,0.08-0.14,0.19-0.14,0.49v2.8H300.07z"/>
			<path class="st17" d="M308.73,534.25v-0.32c0.98-0.1,1.08-0.15,1.08-1.12v-4.53c0-0.98-0.1-1.03-1.08-1.13v-0.32h3.21v0.32
				c-1,0.1-1.09,0.15-1.09,1.13v4.53c0,0.98,0.1,1.02,1.09,1.12v0.32H308.73z"/>
			<path class="st17" d="M323.62,532.29c-0.08,0.39-0.37,1.46-0.49,1.95h-6.24l-0.11-0.18c1.67-2.19,3.33-4.46,5.03-6.78h-2.36
				c-1.07,0-1.25,0.07-1.5,0.42c-0.12,0.15-0.3,0.53-0.46,0.96l-0.36-0.01c0.06-0.59,0.2-1.59,0.23-2.09h0.31
				c0.13,0.27,0.28,0.26,0.64,0.26h4.85l0.1,0.18c-1.67,2.23-3.29,4.44-4.94,6.75c0.37,0.02,1.15,0.04,1.97,0.04
				c1.57,0,1.93-0.06,2.27-0.41c0.25-0.24,0.52-0.68,0.73-1.16L323.62,532.29z"/>
			<path class="st17" d="M332.44,526.67c2.05,0,3.89,1.5,3.89,3.77c0,2.45-1.75,3.98-3.96,3.98c-2.3,0-3.98-1.67-3.98-3.81
				C328.39,528.56,329.91,526.67,332.44,526.67z M332.2,527.09c-1.34,0-2.57,1.07-2.57,3.21c0,2.12,1.22,3.69,2.93,3.69
				c1.45,0,2.54-1.03,2.54-3.23C335.1,528.36,333.77,527.09,332.2,527.09z"/>
			<path class="st17" d="M349.72,527.15c-0.77,0.08-1.02,0.19-1.06,0.72c-0.01,0.37-0.04,0.84-0.04,1.91v4.58h-0.46l-5.13-5.97v2.85
				c0,1.03,0.04,1.54,0.06,1.87c0.02,0.58,0.32,0.75,1.19,0.82v0.32h-2.92v-0.32c0.74-0.06,1.03-0.23,1.08-0.79
				c0.04-0.37,0.06-0.88,0.06-1.92v-2.91c0-0.32-0.02-0.5-0.24-0.75c-0.23-0.29-0.48-0.35-1.07-0.41v-0.32h1.8l5.09,5.74v-2.8
				c0-1.06-0.02-1.55-0.06-1.9c-0.04-0.51-0.31-0.67-1.27-0.73v-0.32h2.96V527.15z"/>
		</g>
	</g>
</g>
<g>
	<g>
	</g>
</g>
</svg>
